HIERARCHY
ROOT hip
{
	OFFSET 0.000000 0.000000 0.000000 
	CHANNELS 6 Xposition Yposition Zposition Xrotation Zrotation Yrotation
	JOINT abdomen
	{
		OFFSET 0.000000 3.402643 0.000000 
		CHANNELS 3 Xrotation Zrotation Yrotation
		JOINT chest
		{
			OFFSET 0.000000 8.438565 -0.680529 
			CHANNELS 3 Xrotation Zrotation Yrotation
			JOINT neck
			{
				OFFSET 0.000000 10.207942 -0.272212 
				CHANNELS 3 Xrotation Zrotation Yrotation
				JOINT head
				{
					OFFSET 0.000000 3.130431 0.000000 
					CHANNELS 3 Xrotation Zrotation Yrotation
					End Site
					{
						OFFSET 0.000000 3.130435 0.000000 
					}
				}
			}
			JOINT lCollar
			{
				OFFSET 3.470700 6.669187 -0.816635 
				CHANNELS 3 Yrotation Zrotation Xrotation
				JOINT lShldr
				{
					OFFSET 3.198488 0.000000 0.000000 
					CHANNELS 3 Zrotation Yrotation Xrotation
					JOINT lForeArm
					{
						OFFSET 10.139888 0.000000 0.000000 
						CHANNELS 3 Yrotation Zrotation Xrotation
						JOINT lHand
						{
							OFFSET 8.370511 0.000000 0.000000 
							CHANNELS 3 Zrotation Yrotation Xrotation
							End Site
							{
								OFFSET 4.083176 0.000000 0.000000 
							}
						}
					}
				}
			}
			JOINT rCollar
			{
				OFFSET -3.470700 6.669187 -0.816635 
				CHANNELS 3 Yrotation Zrotation Xrotation
				JOINT rShldr
				{
					OFFSET -3.198488 0.000000 0.000000 
					CHANNELS 3 Zrotation Yrotation Xrotation
					JOINT rForeArm
					{
						OFFSET -10.139888 0.000000 0.000000 
						CHANNELS 3 Yrotation Zrotation Xrotation
						JOINT rHand
						{
							OFFSET -8.370511 0.000000 0.000000 
							CHANNELS 3 Zrotation Yrotation Xrotation
							End Site
							{
								OFFSET -4.083176 0.000000 0.000000 
							}
						}
					}
				}
			}
		}
	}
	JOINT lThigh
	{
		OFFSET 5.308129 -1.633274 1.361059 
		CHANNELS 3 Xrotation Zrotation Yrotation
		JOINT lShin
		{
			OFFSET -2.041588 -20.007561 0.000000 
			CHANNELS 3 Xrotation Zrotation Yrotation
			JOINT lFoot
			{
				OFFSET 0.000000 -19.190928 -1.224953 
				CHANNELS 3 Xrotation Yrotation Zrotation
				End Site
				{
					OFFSET 0.000000 -2.449906 4.627600 
				}
			}
		}
	}
	JOINT rThigh
	{
		OFFSET -5.308129 -1.633274 1.361059 
		CHANNELS 3 Xrotation Zrotation Yrotation
		JOINT rShin
		{
			OFFSET 2.041588 -20.007561 0.000000 
			CHANNELS 3 Xrotation Zrotation Yrotation
			JOINT rFoot
			{
				OFFSET 0.000000 -19.190928 -1.224953 
				CHANNELS 3 Xrotation Yrotation Zrotation
				End Site
				{
					OFFSET 0.000000 -2.449906 4.627600 
				}
			}
		}
	}
}
MOTION
Frames: 18
Frame Time: 0.033333
-0.260588 44.420437 0.268100 -2.580908 -0.736099 -7.344395 0.000000 0.000000 0.000000 22.251648 5.624470 6.800884 -9.704057 -7.431301 -0.552386 -19.440304 -1.987943 -3.742723 11.600458 25.474552 19.100748 -100.506622 -8.547317 -4.141430 -35.577065 -8.032481 36.853905 -6.611616 16.861681 48.212166 -6.308254 -30.000000 20.599266 86.248222 28.724876 75.573509 11.294969 -17.923203 -14.666356 30.618095 -1.742035 -8.879353 -9.127679 7.065208 19.121675 98.582092 5.232254 -2.039754 4.588704 6.916795 -24.773439 -38.938942 2.411348 3.473258 63.812096 7.963878 6.723080 -10.481294 -16.415346 25.517418 
-0.701268 44.527699 0.171887 -4.648135 -0.262005 -6.445424 0.000000 0.000000 0.000000 26.316000 4.523761 6.259999 -11.921140 -7.402004 -0.552382 -20.578316 -1.520441 -3.595074 11.462585 26.231701 19.012636 -100.804756 -11.764585 -3.912283 -34.659119 -7.001681 34.846569 -6.947544 17.786932 47.952953 -5.993980 -30.000000 20.587212 87.932869 30.943857 75.953041 10.500151 -16.862793 -17.126923 29.770514 -1.775223 -8.987033 -20.062460 9.993710 19.084557 109.243713 8.326816 -1.245208 6.350108 7.318018 -24.106510 -35.377079 1.532951 3.024209 66.428932 7.855852 6.925720 -13.371511 -15.954495 24.605627 
-1.182986 44.595814 -0.113216 -7.275188 0.515289 -5.390758 0.000000 0.000000 0.000000 31.217382 2.819130 5.475560 -13.896088 -7.294600 -0.542682 -21.830273 -0.915717 -4.014251 11.399712 26.863579 18.920839 -101.354424 -15.535697 -3.537929 -33.593987 -6.727286 26.797487 -2.624207 17.701759 49.515190 -5.007529 -30.000000 20.996481 89.416100 33.856796 76.074188 10.144080 -16.831093 -16.736017 30.021107 -1.066650 -8.675531 -32.869282 12.684242 17.985153 116.264725 9.703598 -0.795088 6.051530 9.400130 -22.895023 -31.461836 0.546468 2.521754 68.477615 7.522601 7.045064 -15.816082 -15.624703 24.586311 
-1.588964 44.670506 -0.422337 -10.563864 1.839294 -4.777626 0.000000 0.000000 0.000000 36.658413 0.477058 4.472826 -15.205054 -7.255538 -0.542675 -23.071892 -0.165420 -4.853552 10.792553 27.085430 19.185299 -101.433746 -19.283621 -3.429256 -33.006432 -7.506983 15.765125 3.094054 15.394215 51.491993 -3.452962 -30.000000 21.826967 89.707123 37.274902 75.435791 10.330967 -17.566971 -14.414786 30.695959 -0.290675 -8.162169 -45.526375 14.286731 15.885010 117.925415 9.810893 -0.726818 5.875439 8.587502 -21.153500 -26.936760 -0.468735 1.987839 70.187096 6.426198 6.928401 -18.024803 -15.439943 25.062653 
-1.866057 44.739597 -0.670220 -13.778730 3.416869 -4.568138 0.000000 0.000000 0.000000 41.618103 -1.988561 3.459013 -15.832210 -7.157898 -0.531752 -23.915188 0.378935 -5.761786 9.514939 26.857498 19.862869 -100.745178 -22.805857 -3.735448 -33.148155 -8.420302 7.486631 6.221241 12.201847 52.276905 -2.366614 -30.000000 22.465593 88.491173 40.483578 74.017471 11.009817 -18.315123 -12.353797 30.650446 -0.146435 -7.837308 -57.284840 14.560476 13.066813 115.627563 9.038056 -0.945979 6.330349 7.116849 -20.774120 -22.463575 -1.279247 1.562962 71.629051 4.843727 6.678483 -19.870859 -16.181376 25.326935 
-1.997126 44.743374 -0.820585 -16.541817 5.230414 -4.157183 0.000000 0.000000 0.000000 45.660351 -4.243837 2.555565 -15.973841 -6.884494 -0.512345 -24.197470 0.300426 -7.080133 7.590689 26.773836 20.807650 -100.238304 -26.194408 -3.941517 -33.496429 -8.888377 4.183737 6.898676 10.819176 52.468494 -2.725205 -30.000000 22.282778 86.441605 42.691380 72.376236 11.879923 -18.531672 -13.352146 28.807949 -0.706390 -8.026704 -68.772774 13.142234 9.452039 111.804626 7.360389 -1.393812 6.126440 6.693547 -20.164885 -18.242481 -2.186539 1.100715 73.221024 3.057050 6.416008 -21.890568 -18.033924 25.830582 
-2.006599 44.640064 -0.877854 -18.440598 7.087060 -3.424251 0.000000 0.000000 0.000000 48.249290 -5.963523 1.904567 -15.697482 -6.493914 -0.482072 -24.127174 -0.279958 -8.681775 5.348833 26.982960 21.880329 -100.451569 -29.105503 -3.756584 -33.573849 -8.713588 6.021480 5.863573 11.224939 52.394756 -4.203039 -30.000000 21.470890 84.257751 43.416557 70.994438 13.236742 -18.225241 -18.097425 25.417736 -1.383122 -8.654216 -79.071465 10.742152 5.741052 107.225433 5.144033 -1.973117 6.450628 5.670043 -19.315647 -14.665080 -3.290519 0.636114 75.102249 1.543165 6.255526 -24.231802 -20.386803 26.208950 
-2.045276 44.517460 -0.936500 -19.461853 8.378282 -2.871207 0.000000 0.000000 0.000000 49.528141 -7.194805 1.505611 -15.372196 -6.064266 -0.451863 -23.783169 -0.702186 -9.942207 3.770555 27.185965 22.637648 -100.797264 -31.014971 -3.524157 -33.513306 -8.389544 9.731515 4.121848 11.488513 52.050900 -5.374753 -30.000000 20.832512 82.916458 43.670364 70.170288 14.599168 -17.755037 -23.418104 22.552519 -1.370578 -9.193298 -85.838295 9.101616 3.189741 102.354927 2.919695 -2.553006 6.937959 5.184870 -18.534153 -11.890604 -3.807347 0.369191 76.760406 0.420427 6.160120 -26.175470 -22.646881 26.683460 
-2.179611 44.453480 -1.101913 -19.789474 8.898803 -2.361769 0.000000 0.000000 0.000000 49.937428 -7.820213 1.320339 -15.115108 -5.595552 -0.422682 -23.330200 -1.036470 -10.665831 2.712391 27.436216 23.144217 -101.134338 -32.258430 -3.299815 -33.234058 -8.181738 11.605555 3.191805 11.246813 51.852272 -6.192200 -30.000000 20.427551 82.359291 44.095116 69.753723 15.590204 -17.651091 -26.056307 21.283249 -1.102262 -9.399409 -87.917999 8.251728 2.315843 97.764626 1.091918 -3.050703 6.466385 5.934054 -17.921265 -9.909538 -3.748930 0.317867 77.874931 0.107903 6.183321 -27.371412 -24.299719 26.977224 
-2.392896 44.448387 -1.390019 -19.245316 8.774851 -1.836853 0.000000 0.000000 0.000000 49.222370 -7.868774 1.399061 -14.759204 -5.224487 -0.392559 -22.781780 -1.333197 -10.843008 2.331918 27.451820 23.327181 -101.233307 -32.974476 -3.227046 -32.593716 -8.203417 11.814036 3.162257 10.648379 51.853867 -6.618478 -30.000000 20.243202 82.493988 44.272644 69.782639 16.639742 -18.516405 -26.282417 20.882376 -1.376091 -9.457435 -86.155144 7.919124 2.744700 92.736122 -0.410956 -3.419808 7.875975 7.249472 -19.837250 -8.959356 -3.328049 0.407464 78.624794 0.488817 6.308158 -27.881161 -25.298477 27.700518 
-2.622432 44.521809 -1.737776 -17.855444 8.063717 -1.488793 0.000000 0.000000 0.000000 47.281517 -7.408907 1.693364 -14.292393 -5.068247 -0.382821 -22.332987 -1.325178 -10.481554 2.823082 27.065374 23.117849 -101.052101 -32.624397 -3.334890 -32.049351 -8.124475 11.591681 3.126793 9.954938 51.810635 -6.215948 -30.000000 20.511127 83.176498 44.071903 70.216209 17.517504 -20.026138 -25.490479 21.248558 -2.561269 -9.473354 -80.629028 8.270617 4.550472 86.784920 -1.689083 -3.631855 9.034515 8.579953 -21.607096 -8.792192 -2.712772 0.581754 78.952873 1.308752 6.517269 -27.972948 -25.489166 28.787083 
-2.802604 44.624622 -2.043111 -15.673468 6.872772 -1.464486 0.000000 0.000000 0.000000 44.074245 -6.508820 2.220474 -13.600218 -5.019426 -0.373088 -21.996157 -1.030701 -9.464507 3.763695 26.753235 22.669851 -100.848816 -30.761806 -3.491803 -31.884279 -8.202643 10.964684 2.667269 9.299231 51.675037 -5.264917 -30.000000 21.063061 84.003021 43.272411 70.884079 18.522722 -21.635023 -24.677399 21.953716 -4.253317 -9.521873 -73.303909 9.109943 6.960302 80.200661 -2.478871 -3.739575 9.822963 9.191354 -23.749647 -9.263429 -2.030420 0.809768 78.988968 2.314647 6.738671 -28.072197 -24.974911 29.445980 
-2.880923 44.781570 -2.228222 -12.783011 5.270837 -1.803629 0.000000 0.000000 0.000000 39.775188 -5.159291 2.931792 -12.662783 -5.009660 -0.373087 -21.427042 -0.821944 -8.028193 5.049743 26.586069 22.068380 -100.651581 -27.053270 -3.698750 -32.306934 -8.025967 12.227498 0.946816 8.994389 51.249424 -4.609319 -30.000000 21.467602 84.905144 41.745369 71.752640 19.748335 -23.190445 -22.871948 23.673170 -5.848308 -9.481958 -64.676086 10.126608 9.734132 72.927147 -2.574869 -3.581977 9.140028 8.735130 -25.682198 -9.803478 -1.552454 0.973959 78.748390 3.427812 6.966914 -27.634041 -23.349583 30.789984 
-2.833440 44.991703 -2.300140 -10.111811 4.069825 -1.987124 0.000000 0.000000 0.000000 35.850578 -3.908470 3.562385 -11.806267 -4.824127 -0.353602 -20.733412 -0.930272 -7.120099 5.864097 26.771042 21.652266 -100.940567 -23.008333 -3.625591 -32.955212 -7.227857 15.451906 -1.744020 8.980097 50.632973 -4.872610 -30.000000 21.390085 85.023010 39.630573 72.321526 21.361454 -24.678223 -20.326742 26.102444 -7.523668 -9.428044 -55.887897 10.448985 12.197254 65.163094 -2.749017 -3.416265 7.546947 8.351542 -26.047945 -9.668885 -1.981115 0.874569 78.346352 4.492026 7.138723 -26.869062 -20.949163 32.803764 
-2.581892 45.223778 -2.207686 -6.865927 3.386948 -1.829327 0.000000 0.000000 0.000000 31.436754 -2.941478 4.155437 -10.919768 -4.599527 -0.343045 -20.070803 -1.250342 -7.013451 6.292393 26.968752 21.425829 -101.345482 -18.240118 -3.507086 -34.432396 -4.804730 26.452309 -9.242780 11.620825 48.544971 -5.995935 -30.000000 20.934301 83.921684 37.432659 72.244202 22.463261 -25.366028 -16.771797 29.555069 -7.690445 -9.239067 -46.656910 9.002547 14.002108 56.131947 -1.887747 -2.916801 3.004162 8.292827 -24.676497 -8.796103 -3.963472 0.218127 78.013817 5.703291 7.431664 -26.342705 -16.830963 34.683918 
-2.375810 45.306458 -2.028376 -4.060335 2.381271 -2.062013 0.000000 0.000000 0.000000 27.974380 -1.975926 4.641295 -10.498516 -4.687412 -0.352781 -19.508652 -0.930967 -6.768584 7.238236 26.632975 21.004637 -100.938110 -14.488445 -3.789421 -35.238747 -4.193266 31.771048 -11.228116 12.468698 47.913750 -6.299054 -29.797005 20.830978 83.370354 36.705757 72.108109 22.036209 -25.402147 -13.268328 31.698553 -5.848790 -8.821594 -42.464306 8.454065 14.782336 50.974342 -0.490098 -2.313807 1.010884 7.929318 -23.593855 -8.735961 -4.255790 0.126695 78.161247 5.840034 7.472180 -26.099810 -15.061641 36.467754 
-2.091326 45.273754 -1.663512 -2.085020 2.107740 -2.257206 0.000000 0.000000 0.000000 25.539625 -1.936472 4.826737 -10.428366 -4.843653 -0.363336 -18.996161 -0.455485 -7.080319 8.349436 26.517874 20.483271 -100.807587 -10.993166 -3.917852 -36.243183 -3.680451 37.121456 -14.083203 13.697100 46.996628 -6.319576 -29.956373 20.805021 82.962952 36.370926 71.977272 21.623665 -25.124668 -10.178841 32.222069 -3.310000 -8.279510 -39.754761 7.587568 15.075211 48.820831 0.281949 -2.065498 1.725451 8.157397 -23.603762 -7.976904 -4.520562 0.007984 78.933815 4.570458 7.235313 -24.544823 -14.212932 38.964394 
-1.841943 45.177387 -1.171158 -0.799327 2.146699 -2.305995 0.000000 0.000000 0.000000 23.749962 -2.549560 4.819234 -10.478503 -4.765535 -0.353592 -18.631018 -0.087127 -7.558615 9.019799 26.422760 20.177126 -100.380379 -8.241062 -4.214202 -36.969940 -3.563950 40.825520 -16.622087 14.989404 46.071392 -6.197156 -29.930552 20.867239 82.690926 36.367256 71.818764 21.324913 -24.992397 -8.180269 32.397831 -2.104545 -7.985493 -38.433807 7.166225 15.214457 49.806664 0.291495 -2.093357 2.879653 8.391245 -22.499916 -6.916143 -4.497094 0.003757 80.193634 2.509664 6.876145 -20.428299 -13.716849 42.176212 
